<svg id="Layer_1" xmlns="http://www.w3.org/2000/svg" version="1.1" viewBox="0 0 1124.1 1256.4" width="134px" height="100px" transform="rotate(0) scale(1, 1)">
  <!-- Generator: Adobe Illustrator 29.1.0, SVG Export Plug-In . SVG Version: 2.1.0 Build 142)  -->
  <defs>
    <style>.st0 { fill: #e3b100; }</style>
  </defs>
  <path class="st0" d="M699.6,1113h0c-20.1,44.5-33.3,92.7-38.4,143.4l424.5-90.2c20.1-44.5,33.3-92.7,38.4-143.4l-424.5,90.2Z"/>
  <path class="st0" d="M1085.7,895.8c20.1-44.5,33.3-92.7,38.4-143.4l-330.7,70.3v-135.2l292.3-62.1c20.1-44.5,33.3-92.7,38.4-143.4l-330.7,70.3V66.1c-50.7,28.4-95.7,66.3-132.3,111v403.4l-132.3,28.1V0c-50.7,28.4-95.7,66.3-132.3,111v525.7l-295.9,62.9c-20.1,44.5-33.3,92.8-38.4,143.4l334.3-71v170.3l-358.3,76.1c-20.1,44.5-33.3,92.7-38.4,143.4l375-79.7c30.5-6.3,56.8-24.4,73.8-49.2l68.8-102h0c7.1-10.6,11.3-23.3,11.3-37v-150l132.3-28.1v270.4l424.5-90.3Z"/>
</svg>