<svg version="1.2" xmlns="http://www.w3.org/2000/svg" viewBox="0 0 500 328" width="500" height="328">
	<title>investor</title>
	<style>
		.s0 { fill: #679c97 } 
		.s1 { fill: #ffffff } 
		.s2 { fill: #f5f5f5 } 
		.s3 { opacity: .5;fill: #000000 } 
		.s4 { opacity: .3;fill: #000000 } 
		.s5 { opacity: .4;fill: #000000 } 
		.s6 { opacity: .2;fill: #000000 } 
		.s7 { opacity: .5;fill: #ffffff } 
		.s8 { fill: #ff8b7b } 
		.s9 { opacity: .1;fill: #000000 } 
		.s10 { fill: #263238 } 
		.s11 { fill: #000000 } 
		.s12 { opacity: .6;fill: #000000 } 
		.s13 { fill: #ff5652 } 
		.s14 { opacity: .2;fill: #ffffff } 
	</style>
	<g id="freepik--background-simple--inject-157">
		<path class="s0" d="m78.8 240.7c-2.3-9-3.7-18.2-4.1-27.5-0.4-9.3 0.1-18.6 1.6-27.7 1.5-9.2 3.9-18.2 7.3-26.9 3.3-8.7 7.5-17 12.6-24.8 5.2-8 11.5-15.6 19.8-20.4 8.2-4.8 18.8-6.4 27.5-2.4 9.8 4.6 15.1 15.2 20.9 24.4 5.8 9.2 14.4 18.6 25.2 18.2 6.5-0.2 12.3-4 17.5-7.8 53.6-39.3 91.8-100.1 152.8-126.3 13.5-5.9 29.3-9.7 42.6-3.2 14.4 7.1 21 24.3 22.5 40.3 2.4 25-4.5 50.2-16.3 72.4-11.7 22.1-28.2 41.4-46 59.2-45.9 45.9-103 83.3-167 94.1-21.4 3.6-43.7 4.1-64.6-1.7-21-5.9-40.5-18.7-51.6-37.4 0 1.6-0.7-2.5-0.7-2.5z"/>
		<g style="opacity: .9">
			<path class="s1" d="m78.8 240.7c-2.3-9-3.7-18.2-4.1-27.5-0.4-9.3 0.1-18.6 1.6-27.7 1.5-9.2 3.9-18.2 7.3-26.9 3.3-8.7 7.5-17 12.6-24.8 5.2-8 11.5-15.6 19.8-20.4 8.2-4.8 18.8-6.4 27.5-2.4 9.8 4.6 15.1 15.2 20.9 24.4 5.8 9.2 14.4 18.6 25.2 18.2 6.5-0.2 12.3-4 17.5-7.8 53.6-39.3 91.8-100.1 152.8-126.3 13.5-5.9 29.3-9.7 42.6-3.2 14.4 7.1 21 24.3 22.5 40.3 2.4 25-4.5 50.2-16.3 72.4-11.7 22.1-28.2 41.4-46 59.2-45.9 45.9-103 83.3-167 94.1-21.4 3.6-43.7 4.1-64.6-1.7-21-5.9-40.5-18.7-51.6-37.4 0 1.6-0.7-2.5-0.7-2.5z"/>
		</g>
	</g>
	<g id="freepik--Shadow--inject-157">
		<path id="freepik--path--inject-157" fill-rule="evenodd" class="s2" d="m250 326c-107.2 0-193.9-5.1-193.9-11.3 0-6.3 86.7-11.3 193.9-11.3 107.2 0 193.9 5 193.9 11.3 0 6.2-86.7 11.3-193.9 11.3z"/>
	</g>
	<g id="freepik--chart-2--inject-157">
		<path fill-rule="evenodd" class="s0" d="m217.2 141.7h66v173.7h-66z"/>
		<path fill-rule="evenodd" class="s3" d="m234.2 141.7h49.2v173.7h-49.2z"/>
		<path fill-rule="evenodd" class="s0" d="m303.4 200.9h66.1v114.5h-66z"/>
		<path fill-rule="evenodd" class="s4" d="m320.2 200.7h49.3v114.7h-49.3z"/>
		<path fill-rule="evenodd" class="s0" d="m130.5 172.7h66.1v142.7h-66.1z"/>
		<path fill-rule="evenodd" class="s5" d="m147.3 172.3h49.2v143.1h-49.2z"/>
	</g>
	<g id="freepik--chart-1--inject-157">
		<path class="s0" d="m132.9 58v6q1.4 0.1 2.8 0.4 1.4 0.4 2.7 0.9 1.3 0.6 2.5 1.3 1.2 0.7 2.3 1.6l4.3-4.2q-1.6-1.3-3.3-2.4-1.7-1.1-3.5-1.8-1.9-0.8-3.8-1.2-2-0.5-4-0.6z"/>
		<path class="s0" d="m130 100.1c-2.1-0.2-4.2-0.7-6.1-1.6-2-0.9-3.7-2.1-5.2-3.6-1.5-1.5-2.8-3.3-3.6-5.2-0.9-2-1.5-4-1.7-6.2h-5.9c0.1 3 0.8 5.8 2 8.5 1.2 2.6 2.9 5 4.9 7.1 2.1 2.1 4.5 3.7 7.2 4.9 2.6 1.2 5.5 1.9 8.4 2.1z"/>
		<path class="s0" d="m113.5 80.6c0.1-2.1 0.7-4.2 1.6-6.1 0.9-1.9 2.1-3.7 3.6-5.2 1.5-1.5 3.3-2.7 5.2-3.6 1.9-0.9 4-1.5 6.1-1.6v-6c-2.9 0.1-5.8 0.9-8.4 2-2.7 1.2-5.1 2.9-7.2 5-2 2-3.7 4.5-4.9 7.1-1.2 2.7-1.9 5.5-2.1 8.5z"/>
		<path class="s6" d="m113.5 80.6c0.1-2.1 0.7-4.2 1.6-6.1 0.9-1.9 2.1-3.7 3.6-5.2 1.5-1.5 3.3-2.7 5.2-3.6 1.9-0.9 4-1.5 6.1-1.6v-6c-2.9 0.1-5.8 0.9-8.4 2-2.7 1.2-5.1 2.9-7.2 5-2 2-3.7 4.5-4.9 7.1-1.2 2.7-1.9 5.5-2.1 8.5z"/>
		<path class="s0" d="m149.5 66.1l-4.3 4.3c2.2 2.5 3.6 5.6 4.1 8.9 0.5 3.3 0.1 6.6-1.1 9.7-1.3 3.1-3.4 5.7-6.1 7.7-2.7 1.9-5.9 3.1-9.2 3.4v6c4.5-0.3 8.9-1.8 12.5-4.4 3.7-2.7 6.6-6.3 8.3-10.4 1.7-4.2 2.3-8.8 1.5-13.2-0.7-4.5-2.7-8.6-5.7-12z"/>
		<g style="opacity: .8">
			<path class="s1" d="m132.9 58v6q1.4 0.1 2.8 0.4 1.4 0.4 2.7 0.9 1.3 0.6 2.5 1.3 1.2 0.7 2.3 1.6l4.3-4.2q-1.6-1.3-3.3-2.4-1.7-1.1-3.5-1.8-1.9-0.8-3.8-1.2-2-0.5-4-0.6z"/>
		</g>
		<g style="opacity: .6">
			<path class="s1" d="m130 100.1c-2.1-0.2-4.2-0.7-6.1-1.6-2-0.9-3.7-2.1-5.2-3.6-1.5-1.5-2.8-3.3-3.6-5.2-0.9-2-1.5-4-1.7-6.2h-5.9c0.1 3 0.8 5.8 2 8.5 1.2 2.6 2.9 5 4.9 7.1 2.1 2.1 4.5 3.7 7.2 4.9 2.6 1.2 5.5 1.9 8.4 2.1z"/>
		</g>
		<g style="opacity: .7">
			<path class="s1" d="m113.5 80.6c0.1-2.1 0.7-4.2 1.6-6.1 0.9-1.9 2.1-3.7 3.6-5.2 1.5-1.5 3.3-2.7 5.2-3.6 1.9-0.9 4-1.5 6.1-1.6v-6c-2.9 0.1-5.8 0.9-8.4 2-2.7 1.2-5.1 2.9-7.2 5-2 2-3.7 4.5-4.9 7.1-1.2 2.7-1.9 5.5-2.1 8.5z"/>
		</g>
		<path class="s7" d="m149.5 66.1l-4.3 4.3c2.2 2.5 3.6 5.6 4.1 8.9 0.5 3.3 0.1 6.6-1.1 9.7-1.3 3.1-3.4 5.7-6.1 7.7-2.7 1.9-5.9 3.1-9.2 3.4v6c4.5-0.3 8.9-1.8 12.5-4.4 3.7-2.7 6.6-6.3 8.3-10.4 1.7-4.2 2.3-8.8 1.5-13.2-0.7-4.5-2.7-8.6-5.7-12z"/>
	</g>
	<g id="freepik--Arrow--inject-157">
		<path fill-rule="evenodd" class="s0" d="m175.3 51.7l7.6 10.3 44.1-18.3 43 15.3 38.9-25.2 2.8 3.8 9.3-15.2-20.8-1.6 3.2 4.2-38.9 24.9-42.4-15-46.8 16.8z"/>
		<g style="opacity: .5">
			<path fill-rule="evenodd" class="s1" d="m175.3 51.7l7.6 10.3 44.1-18.3 43 15.3 38.9-25.2 2.8 3.8 9.3-15.2-20.8-1.6 3.2 4.2-38.9 24.9-42.4-15-46.8 16.8z"/>
		</g>
	</g>
	<g id="freepik--Symbol--inject-157">
		<path class="s0" d="m356 58.1c-3.9 0-7.5 2.4-9 6-1.5 3.6-0.6 7.8 2.1 10.6 2.8 2.8 7 3.6 10.6 2.1 3.6-1.5 6-5.1 6-9 0-1.3-0.3-2.5-0.7-3.7-0.5-1.2-1.2-2.2-2.1-3.1-0.9-0.9-2-1.7-3.2-2.1-1.2-0.5-2.4-0.8-3.7-0.8zm0 14.6c-2 0-3.7-1.2-4.5-3-0.7-1.8-0.3-3.9 1.1-5.3 1.3-1.4 3.4-1.8 5.2-1.1 1.9 0.8 3 2.6 3 4.5q0 1-0.3 1.9-0.4 0.9-1.1 1.5-0.7 0.7-1.5 1.1-0.9 0.4-1.9 0.4z"/>
		<path class="s0" d="m380.4 86.6c-3.9 0-7.4 2.3-8.9 6-1.5 3.6-0.7 7.8 2.1 10.5 2.8 2.8 6.9 3.6 10.5 2.1 3.7-1.5 6-5 6-8.9 0-1.3-0.2-2.6-0.7-3.7-0.5-1.2-1.2-2.3-2.1-3.2-0.9-0.9-2-1.6-3.1-2.1-1.2-0.5-2.5-0.7-3.7-0.7zm0 14.5c-2 0-3.8-1.2-4.5-3-0.8-1.8-0.4-3.9 1-5.3 1.4-1.3 3.5-1.8 5.3-1 1.8 0.7 3 2.5 3 4.5q0 0.9-0.4 1.8-0.4 0.9-1 1.6-0.7 0.7-1.6 1-0.9 0.4-1.8 0.4z"/>
		<path fill-rule="evenodd" class="s0" d="m359.6 106h-6.4l22.4-47.9h6.4l-22.4 47.9z"/>
		<g style="opacity: .5">
			<path class="s1" d="m356 58.1c-3.9 0-7.5 2.4-9 6-1.5 3.6-0.6 7.8 2.1 10.6 2.8 2.8 7 3.6 10.6 2.1 3.6-1.5 6-5.1 6-9 0-1.3-0.3-2.5-0.7-3.7-0.5-1.2-1.2-2.2-2.1-3.1-0.9-0.9-2-1.7-3.2-2.1-1.2-0.5-2.4-0.8-3.7-0.8zm0 14.6c-2 0-3.7-1.2-4.5-3-0.7-1.8-0.3-3.9 1.1-5.3 1.3-1.4 3.4-1.8 5.2-1.1 1.9 0.8 3 2.6 3 4.5q0 1-0.3 1.9-0.4 0.9-1.1 1.5-0.7 0.7-1.5 1.1-0.9 0.4-1.9 0.4z"/>
			<path class="s1" d="m380.4 86.6c-3.9 0-7.4 2.3-8.9 6-1.5 3.6-0.7 7.8 2.1 10.5 2.8 2.8 6.9 3.6 10.5 2.1 3.7-1.5 6-5 6-8.9 0-1.3-0.2-2.6-0.7-3.7-0.5-1.2-1.2-2.3-2.1-3.2-0.9-0.9-2-1.6-3.1-2.1-1.2-0.5-2.5-0.7-3.7-0.7zm0 14.5c-2 0-3.8-1.2-4.5-3-0.8-1.8-0.4-3.9 1-5.3 1.4-1.3 3.5-1.8 5.3-1 1.8 0.7 3 2.5 3 4.5q0 0.9-0.4 1.8-0.4 0.9-1 1.6-0.7 0.7-1.6 1-0.9 0.4-1.8 0.4z"/>
			<path fill-rule="evenodd" class="s1" d="m359.6 106h-6.4l22.4-47.9h6.4l-22.4 47.9z"/>
		</g>
	</g>
	<g id="freepik--Character--inject-157">
		<g id="freepik--Character--inject-2--inject-157">
			<path class="s8" d="m245 62.4c0.3 1.3 0.5 2.3 0.8 3.5 0.3 1.1 0.6 2.1 0.9 3.3q1 3.3 2.3 6.6 0.6 1.7 1.3 3.4 0.8 1.6 1.6 3.3 0.8 1.6 1.8 3.1 1 1.6 2 3.1 0.3 0.4 0.7 0.8 0.3 0.4 0.6 0.8 0.4 0.4 0.7 0.8 0.4 0.3 0.8 0.7 0.4 0.4 0.8 0.8 0.5 0.4 1 0.7 0.5 0.3 1 0.6 0.5 0.3 1 0.6 1 0.5 2 0.8 1.1 0.4 2.2 0.6 1.1 0.2 2.2 0.3 1.1 0 2.2 0 1-0.1 2-0.3 0.9-0.1 1.9-0.3 0.9-0.2 1.8-0.5 1-0.3 1.9-0.7 0.4-0.2 0.8-0.4 0.4-0.2 0.9-0.4 0.4-0.2 0.8-0.4 0.4-0.2 0.8-0.4 0.2-0.1 0.4-0.2 0.2-0.2 0.4-0.3 0.2-0.1 0.4-0.2 0.2-0.2 0.4-0.3c0.5-0.4 1-0.7 1.5-1.1l-2.7-4.7-1.3 0.4-1.5 0.3q-1.5 0.4-3 0.6-0.7 0.1-1.4 0.1-0.7 0.1-1.3 0.1-0.7 0-1.4 0-0.7-0.1-1.4-0.1-0.5-0.1-1-0.2-0.6-0.1-1.1-0.3-0.5-0.2-1-0.4-0.5-0.3-0.9-0.6-0.2-0.1-0.4-0.3-0.2-0.1-0.4-0.3-0.2-0.2-0.3-0.3-0.2-0.2-0.4-0.4-0.2-0.2-0.4-0.5-0.2-0.2-0.3-0.4-0.2-0.3-0.4-0.6-0.2-0.2-0.3-0.5-0.4-0.6-0.8-1.2-0.3-0.6-0.7-1.2-0.3-0.6-0.6-1.3-0.3-0.6-0.6-1.3c-0.8-1.8-1.5-3.7-2.2-5.7-0.7-1.9-1.3-4-1.9-6l-0.9-3c-0.2-1-0.5-2-0.7-2.9z"/>
			<path class="s0" d="m244.1 56.3c4.5-5.7 11.4-3.6 15.3 5.6q0.8 1.8 1.5 3.7 0.7 1.8 1.4 3.7 0.6 1.9 1.1 3.8 0.6 2 1.1 3.9l-16.2 5.7c-4.2-8.7-8.9-20.4-4.2-26.4z"/>
			<path class="s9" d="m244.1 56.3c4.5-5.7 11.4-3.6 15.3 5.6q0.8 1.8 1.5 3.7 0.7 1.8 1.4 3.7 0.6 1.9 1.1 3.8 0.6 2 1.1 3.9l-16.2 5.7c-4.2-8.7-8.9-20.4-4.2-26.4z"/>
			<path class="s4" d="m250.8 66c-1.3-0.9-4 4.3-5.3 10.5 0.9 2.2 1.9 4.3 2.8 6.2l9.7-3.4c-1.6-5.8-4.2-11.3-7.2-13.3z"/>
			<path class="s8" d="m283.1 83.6l3.5-1.9 1.2 7.9c0 0-5.9 3.5-7.6 0.6l0.2-2q0.1-0.7 0.3-1.3 0.2-0.7 0.6-1.3 0.3-0.6 0.8-1.1 0.4-0.5 1-0.9z"/>
			<path fill-rule="evenodd" class="s8" d="m291 81.3l3.1 6.4-6.3 1.9-1.2-7.9 4.4-0.4z"/>
			<path class="s0" d="m244 51.2l-8.2-1.2-10.3 0.9q-1.2 0.1-2.3 0.6-1.1 0.4-1.9 1.2-0.9 0.8-1.5 1.9-0.5 1-0.8 2.1-0.4 2.9-0.7 5.7-0.4 2.8-0.6 5.7-0.3 2.8-0.5 5.6-0.1 2.9-0.2 5.7c-0.4 8.6 0.6 21.2 2 32.6l34.4-4.2c0.3-30 2.6-39.2 2.9-47.2q0-1.2-0.3-2.3-0.4-1.1-1-2.1-0.7-0.9-1.7-1.6-0.9-0.7-2-1.1z"/>
			<path fill-rule="evenodd" class="s8" d="m254.4 199.9l7.3 2.1 6.6-17.2-7.3-2-6.6 17.1z"/>
			<path class="s10" d="m265 199.7q-0.2-0.3-0.5-0.5-0.2-0.3-0.5-0.4-0.3-0.2-0.7-0.3-0.3-0.2-0.7-0.2l-7.5-1.5q-0.1 0-0.2 0-0.2 0-0.3 0.1-0.1 0-0.2 0.1 0 0.1-0.1 0.3l-2.3 6.8q-0.1 0.3-0.1 0.6 0 0.3 0.2 0.6 0.1 0.3 0.3 0.5 0.2 0.2 0.5 0.3h0.1c2.8 1.1 4.7 0.7 9 1.5 2.7 0.5 8.3 2.3 12 2.2 3.7-0.2 3.7-3.9 2.2-4.2-5.6-0.8-9.9-4.2-11.2-5.9z"/>
			<g style="opacity: .2">
				<path fill-rule="evenodd" class="s11" d="m268.3 184.8l-3.5 9.1-7.2-2.3 3.4-8.8 7.3 2z"/>
			</g>
			<path class="s10" d="m286.5 134.1q-0.1 1-0.2 2-0.2 1.1-0.3 2.1-0.2 1-0.4 2-0.3 1-0.5 2c-2 7.4-5.3 15-8 22.4-5.4 14.7-10.1 27.4-10.1 27.4l-10-3.5c0 0 9-42.3 15.1-46.6h-37.3q-0.2 0-0.5-0.1-0.2 0-0.5 0-0.3 0-0.5 0-0.3-0.1-0.5-0.1c6.4-0.8 16.4-4.8 25.6-8.7 8.2-3.5 15.9-7 20-8.3 5.1 2.1 8.5 5.1 8.1 9.4z"/>
			<path class="s9" d="m286.5 134.1q-0.1 1-0.2 2-0.2 1.1-0.3 2.1-0.2 1-0.4 2-0.3 1-0.5 2c-2 7.4-5.3 15-8 22.4-5.4 14.7-10.1 27.4-10.1 27.4l-10-3.5c0 0 9-42.3 15.1-46.6h-37.3q-0.2 0-0.5-0.1-0.2 0-0.5 0-0.3 0-0.5 0-0.3-0.1-0.5-0.1c6.4-0.8 16.4-4.8 25.6-8.7 8.2-3.5 15.9-7 20-8.3 5.1 2.1 8.5 5.1 8.1 9.4z"/>
			<path class="s12" d="m278.4 124.7c-4.1 1.3-11.8 4.8-19.9 8.3-9.3 4-19.3 7.9-25.7 8.7-10.8-1.4-14.9-14.3-3.6-29.1 7.3 0 14.7 7 14.7 7 0 0 22.2-0.1 34.6 5.1z"/>
			<path fill-rule="evenodd" class="s8" d="m305.4 185.2h8.2l-8.6-20.6-5.6 9.5 6 11.1z"/>
			<path class="s10" d="m312.9 183.2l-9.6-2.1q-0.1-0.1-0.3-0.1-0.1 0-0.2 0.1-0.1 0.1-0.2 0.2-0.1 0.1-0.1 0.2l-2.7 7.4q-0.1 0.3 0 0.5 0 0.3 0.1 0.6 0.2 0.2 0.4 0.4 0.2 0.2 0.5 0.3h0.1c3.3 0.7 5 0.9 9.2 1.8 2.6 0.6 9.2 2.3 12.8 3.2 3.6 0.8 4.5-2.7 3.1-3.4-6.4-3-9.9-5.8-11.8-8.2q-0.1-0.2-0.2-0.3-0.2-0.2-0.4-0.3-0.1-0.1-0.3-0.1-0.2-0.1-0.4-0.2z"/>
			<g style="opacity: .2">
				<path fill-rule="evenodd" class="s11" d="m305 164.6l3.6 8.8-7.3 4.1-1.9-3.4 5.6-9.5z"/>
			</g>
			<path class="s10" d="m308.8 170.3l-9 5.4c0 0-7.6-15.7-14.7-33.5q0.2-1 0.5-2 0.2-1 0.4-2 0.2-1 0.3-2.1 0.1-1 0.2-2c0.4-4.3-3-7.3-8-9.4-4.2 1.4-11.8 4.8-20 8.3-9.3 4-19.3 7.9-25.7 8.8q-0.3 0-0.6 0-0.2 0.1-0.5 0.1-0.3 0-0.6 0-0.2 0-0.5 0c-12.3 0-16.6-10.8-11.6-29.1 7.3 0 19.9-0.8 19.9-0.8 0 0 24.2-5.8 41.6-3.8 2.1 0.2 4.1 0.8 5.9 1.6 1.9 0.9 3.7 2.1 5.2 3.5 1.5 1.4 2.8 3 3.8 4.8 1 1.8 1.7 3.8 2.1 5.8 4.5 22.3 11.3 46.4 11.3 46.4z"/>
			<path class="s10" d="m308.8 170.3l-9 5.4c0 0-7.6-15.7-14.7-33.5q0.2-1 0.5-2 0.2-1 0.4-2 0.2-1 0.3-2.1 0.1-1 0.2-2c0.4-4.3-3-7.3-8-9.4-4.2 1.4-11.8 4.8-20 8.3-9.3 4-19.3 7.9-25.7 8.8q-0.3 0-0.6 0-0.2 0.1-0.5 0.1-0.3 0-0.6 0-0.2 0-0.5 0c-12.3 0-16.6-10.8-11.6-29.1 7.3 0 19.9-0.8 19.9-0.8 0 0 24.2-5.8 41.6-3.8 2.1 0.2 4.1 0.8 5.9 1.6 1.9 0.9 3.7 2.1 5.2 3.5 1.5 1.4 2.8 3 3.8 4.8 1 1.8 1.7 3.8 2.1 5.8 4.5 22.3 11.3 46.4 11.3 46.4z"/>
			<path class="s0" d="m244 51.2l-8.2-1.2-10.3 0.9q-1.2 0.1-2.3 0.6-1.1 0.4-1.9 1.2-0.9 0.8-1.5 1.9-0.5 1-0.8 2.1-0.4 2.9-0.7 5.7-0.4 2.8-0.6 5.7-0.3 2.8-0.5 5.6-0.1 2.9-0.2 5.7c-0.4 8.6 0.6 21.2 2 32.6l34.4-4.2c0.3-30 2.6-39.2 2.9-47.2q0-1.2-0.3-2.3-0.4-1.1-1-2.1-0.7-0.9-1.7-1.6-0.9-0.7-2-1.1z"/>
			<path class="s10" d="m218.9 110.1l-0.9 2.8c-0.1 0.2 0.2 0.4 0.5 0.4l34.3-2c0.3 0 0.6-0.1 0.6-0.3l0.4-2.8c0-0.2-0.3-0.4-0.6-0.4l-33.7 2.1q-0.1 0-0.2 0-0.1 0-0.1 0-0.1 0-0.2 0.1 0 0-0.1 0.1z"/>
			<path class="s9" d="m218.9 110.1l-0.9 2.8c-0.1 0.2 0.2 0.4 0.5 0.4l34.3-2c0.3 0 0.6-0.1 0.6-0.3l0.4-2.8c0-0.2-0.3-0.4-0.6-0.4l-33.7 2.1q-0.1 0-0.2 0-0.1 0-0.1 0-0.1 0-0.2 0.1 0 0-0.1 0.1z"/>
			<path class="s4" d="m222.4 53.9c6.8-1.2 6.5 14.4 3.4 25.8-0.9 3.3-4.8 1.9-6.1 1.1-4.4-2.8-5.8-21.9 2.7-26.9z"/>
			<path class="s8" d="m221.6 77c0.2 6.7-1.9 10.3 1.7 12.5 3.6 2.3 24.8 9.3 25.3 8.4-1 1.6-2 3-3 4.6q-9.2-1.3-18.3-2.5c-4.5-0.6-11.7-1.7-15.2-4.6-3.2-2.5-2.6-13.8-2.1-21.9 2.8-1.6 11.6 3.5 11.6 3.5z"/>
			<path class="s0" d="m219.7 51.2c7-2.1 9.8 3.6 7.6 13.3q-0.4 1.9-0.9 3.9-0.5 1.9-1.1 3.8-0.5 1.9-1.2 3.8-0.7 1.9-1.4 3.7l-14.8-4.6c1.6-9.5 4.6-21.8 11.8-23.9z"/>
			<path class="s0" d="m230 51.2q-0.1 0.5 0 1.1 0 0.5 0.1 1.1 0.2 0.5 0.4 1 0.2 0.5 0.6 1 0.3 0.4 0.6 0.9 0.4 0.4 0.8 0.8 0.3 0.4 0.7 0.8 0.4 0.4 0.9 0.7c1.4 1.3 3 2.7 4.9 2.4 1.7-0.2 2.7-1.1 3.4-3.1 1.5 2.4 1.6 3.6 3.2 3.7q0.4 0 0.8-0.1 0.4-0.1 0.7-0.3 0.4-0.2 0.7-0.4 0.3-0.3 0.5-0.6 0.5-0.4 0.8-0.8 0.4-0.5 0.7-1 0.2-0.5 0.4-1.1 0.2-0.5 0.2-1.1c0.4-3-2-5.8-4.9-6.9q-1.1-0.4-2.2-0.7-1.1-0.3-2.2-0.5-1.2-0.2-2.3-0.4-1.1-0.1-2.3-0.2c-2.7-0.3-6 0.6-6.5 3.7z"/>
			<path class="s4" d="m230 51.2q-0.1 0.5 0 1.1 0 0.5 0.1 1.1 0.2 0.5 0.4 1 0.2 0.5 0.6 1 0.3 0.4 0.6 0.9 0.4 0.4 0.8 0.8 0.3 0.4 0.7 0.8 0.4 0.4 0.9 0.7c1.4 1.3 3 2.7 4.9 2.4 1.7-0.2 2.7-1.1 3.4-3.1 1.5 2.4 1.6 3.6 3.2 3.7q0.4 0 0.8-0.1 0.4-0.1 0.7-0.3 0.4-0.2 0.7-0.4 0.3-0.3 0.5-0.6 0.5-0.4 0.8-0.8 0.4-0.5 0.7-1 0.2-0.5 0.4-1.1 0.2-0.5 0.2-1.1c0.4-3-2-5.8-4.9-6.9q-1.1-0.4-2.2-0.7-1.1-0.3-2.2-0.5-1.2-0.2-2.3-0.4-1.1-0.1-2.3-0.2c-2.7-0.3-6 0.6-6.5 3.7z"/>
			<path class="s8" d="m237.2 36.6l3.7 4.3 5.1 5.9q-0.2 0.2-0.4 0.5-0.1 0.2-0.2 0.5-0.2 0.3-0.3 0.5-0.1 0.3-0.1 0.6-0.3 0.6-0.3 1.2-0.1 0.7 0.1 1.3 0.2 0.6 0.6 1.1 0.4 0.5 1 0.9c0.7 0.3 1.1 4.4-4 4q-1.1 0-2.1-0.3-1.1-0.2-2.1-0.7-1-0.4-1.8-1.1-0.9-0.6-1.7-1.4c-0.9-1.3-1.1-1.9-0.2-3.3 2.8-3.9 3-9.5 2.7-14z"/>
			<path class="s6" d="m244.7 45.4l-3.2-4.3c0 0.2 0 0.3-0.1 0.4q0 0.3-0.1 0.5 0 0.2-0.1 0.4 0 0.3 0 0.5-0.1 0.2-0.1 0.5c-0.2 2.1 1.8 4.7 3.7 5.9l0.2-0.4q0-0.3 0.1-0.6 0.2-0.2 0.3-0.5 0.1-0.2 0.2-0.5 0.2-0.2 0.4-0.4 0 0 0-0.1 0 0 0 0 0 0 0 0 0 0 0 0z"/>
			<path class="s8" d="m237.5 28.7c-0.6 7-1.2 11 1.8 15 4.5 6 13.5 3.8 16.1-2.9 2.3-6 2.8-16.3-3.6-20-1.1-0.6-2.3-1-3.5-1.1-1.3-0.2-2.6 0-3.8 0.3-1.2 0.4-2.4 0.9-3.4 1.7-1 0.8-1.8 1.8-2.4 2.9q-0.3 0.5-0.5 1-0.2 0.5-0.3 1-0.2 0.5-0.3 1-0.1 0.6-0.1 1.1z"/>
			<path class="s10" d="m236.5 34.9l3 1.3c1-0.5 1.2-1.7 1.2-2.8-0.4-4.2 7.3-9.4 7.3-9.4 0 0-8.1-2.7-10.5-3.1-0.9-0.1-3.9 2.1-4.4 3q-0.5 1.1-0.6 2.2-0.2 1.1-0.1 2.2 0.1 1.1 0.6 2.1 0.4 1 1.1 1.9 0.3 0.4 0.6 0.7 0.2 0.3 0.5 0.6 0.3 0.4 0.6 0.7 0.4 0.3 0.7 0.6z"/>
			<path class="s8" d="m233.9 33.6q0.1 0.6 0.2 1.1 0.2 0.6 0.5 1.1 0.2 0.5 0.6 1 0.3 0.5 0.7 0.9c1.5 1.3 3.3-0.1 3.5-2.1 0.2-1.8-0.7-4.4-2.5-4.9-1.8-0.6-3.1 1-3 2.9z"/>
			<path class="s10" d="m247.9 32.9c-0.1 0.5 0.1 1.1 0.5 1.2 0.4 0 0.7-0.3 0.9-0.9 0.1-0.6-0.1-1.1-0.5-1.2-0.4-0.1-0.8 0.3-0.9 0.9z"/>
			<path class="s10" d="m254.3 34.3c-0.1 0.6 0.1 1.1 0.5 1.2 0.4 0.1 0.8-0.3 0.9-0.9 0.1-0.6-0.1-1.1-0.5-1.2-0.4-0.1-0.7 0.3-0.9 0.9z"/>
			<path class="s13" d="m252.2 34.3q0.1 0.6 0.2 1.2 0.1 0.6 0.3 1.2 0.1 0.6 0.3 1.2 0.2 0.5 0.4 1.1-0.3 0.1-0.6 0.2-0.3 0-0.6 0-0.3-0.1-0.6-0.2-0.3-0.1-0.5-0.2z"/>
			<path class="s10" d="m249.4 42q-0.4-0.2-0.9-0.4-0.4-0.3-0.8-0.6-0.4-0.4-0.6-0.8-0.3-0.4-0.5-0.8-0.1-0.1-0.1-0.1 0 0 0.1-0.1 0 0 0 0 0-0.1 0-0.1 0.1 0 0.1 0 0 0 0.1 0 0 0.1 0 0.1 0.1 0 0.1 0 0.2 0.5 0.5 1 0.4 0.4 0.8 0.7 0.4 0.4 0.9 0.6 0.5 0.3 1.1 0.4 0 0 0 0 0.1 0 0.1 0 0 0.1 0 0.1 0 0 0 0.1 0 0 0 0 0 0.1-0.1 0.1 0 0 0 0-0.1 0-0.1 0-0.1 0-0.2 0 0-0.1-0.1-0.1-0.1 0-0.2 0-0.1-0.1-0.2-0.1z"/>
			<path class="s10" d="m247.1 30.6q-0.1 0-0.1 0 0 0 0-0.1 0 0-0.1 0 0 0 0 0 0-0.1-0.1-0.1 0-0.1 0-0.2 0 0 0-0.1 0.1 0 0.1-0.1 0.3-0.3 0.7-0.4 0.3-0.2 0.7-0.3 0.4-0.1 0.8-0.1 0.4 0 0.8 0.1 0.1 0 0.1 0 0.1 0.1 0.1 0.1 0.1 0.1 0.1 0.2 0 0 0 0.1-0.1 0.1-0.1 0.1-0.1 0.1-0.1 0.1-0.1 0-0.1 0-0.1 0-0.2 0-0.3-0.1-0.6-0.1-0.3 0-0.6 0.1-0.3 0.1-0.6 0.2-0.3 0.2-0.5 0.4-0.1 0-0.1 0.1 0 0-0.1 0 0 0-0.1 0 0 0 0 0z"/>
			<path class="s10" d="m255.1 30.6q0 0 0-0.1 0 0 0 0 0 0 0 0 0-0.1 0-0.1 0 0 0-0.1 0.1-0.1 0.1-0.1 0.1 0 0.2 0 0 0 0.1 0 0.4 0.1 0.7 0.3 0.4 0.1 0.7 0.4 0.3 0.3 0.5 0.6 0.3 0.3 0.4 0.7 0 0 0 0.1 0 0.1 0 0.1-0.1 0.1-0.1 0.1-0.1 0.1-0.1 0.1-0.1 0-0.2 0 0 0-0.1 0 0-0.1-0.1-0.1 0-0.1-0.1-0.1-0.1-0.3-0.2-0.6-0.2-0.2-0.5-0.4-0.2-0.2-0.5-0.4-0.3-0.1-0.6-0.2 0 0-0.1 0 0-0.1 0-0.1-0.1 0-0.1 0 0-0.1 0-0.1z"/>
		</g>
		<path class="s0" d="m257.2 109.4l43.9 0.1q0.6 0 1.1-0.2 0.5-0.2 0.9-0.6 0.5-0.4 0.7-0.9 0.3-0.5 0.4-1.1l1.9-22.2q0.1-0.6-0.1-1.1-0.1-0.5-0.5-0.9-0.4-0.4-0.9-0.6-0.5-0.2-1-0.2l-43.9-0.2q-0.6 0.1-1.1 0.3-0.5 0.2-1 0.6-0.4 0.4-0.6 0.9-0.3 0.5-0.4 1l-2 22.3q0 0.5 0.1 1 0.2 0.5 0.6 0.9 0.4 0.5 0.9 0.7 0.5 0.2 1 0.2z"/>
		<path class="s4" d="m257.2 109.4l43.9 0.1q0.6 0 1.1-0.2 0.5-0.2 0.9-0.6 0.5-0.4 0.7-0.9 0.3-0.5 0.4-1.1l1.9-22.2q0.1-0.6-0.1-1.1-0.1-0.5-0.5-0.9-0.4-0.4-0.9-0.6-0.5-0.2-1-0.2l-43.9-0.2q-0.6 0.1-1.1 0.3-0.5 0.2-1 0.6-0.4 0.4-0.6 0.9-0.3 0.5-0.4 1l-2 22.3q0 0.5 0.1 1 0.2 0.5 0.6 0.9 0.4 0.5 0.9 0.7 0.5 0.2 1 0.2z"/>
		<path class="s0" d="m258.5 109.3l43.9 0.1q0.5 0 1.1-0.2 0.5-0.2 0.9-0.6 0.5-0.4 0.7-0.9 0.3-0.5 0.3-1.1l2-22.2q0.1-0.5-0.1-1.1-0.1-0.5-0.5-0.9-0.4-0.4-0.9-0.6-0.5-0.2-1-0.2l-43.9-0.2q-0.6 0.1-1.1 0.3-0.5 0.2-1 0.6-0.4 0.4-0.6 0.9-0.3 0.5-0.4 1.1l-2 22.2q0 0.5 0.1 1 0.2 0.6 0.6 1 0.3 0.4 0.8 0.6 0.5 0.2 1.1 0.2z"/>
		<path class="s14" d="m258.5 109.3l43.9 0.1q0.5 0 1.1-0.2 0.5-0.2 0.9-0.6 0.5-0.4 0.7-0.9 0.3-0.5 0.3-1.1l2-22.2q0.1-0.5-0.1-1.1-0.1-0.5-0.5-0.9-0.4-0.4-0.9-0.6-0.5-0.2-1-0.2l-43.9-0.2q-0.6 0.1-1.1 0.3-0.5 0.2-1 0.6-0.4 0.4-0.6 0.9-0.3 0.5-0.4 1.1l-2 22.2q0 0.5 0.1 1 0.2 0.6 0.6 1 0.3 0.4 0.8 0.6 0.5 0.2 1.1 0.2z"/>
		<path class="s1" d="m284.8 95.8c-0.2 1.2-1 2.2-2.2 2.6-1.2 0.4-2.5 0-3.3-1-0.8-1-0.9-2.3-0.3-3.4 0.6-1.1 1.8-1.8 3-1.6q0.6 0 1.2 0.3 0.5 0.3 0.9 0.8 0.4 0.5 0.6 1 0.1 0.6 0.1 1.3z"/>
		<path class="s0" d="m303 109.4c0 1.3-0.8 2.4-1.8 2.4l-45.2-0.2c-0.5 0-0.9-0.5-0.9-1.2 0-0.6 0.4-1.2 0.9-1.2z"/>
		<path class="s4" d="m303 109.4c0 1.3-0.8 2.4-1.8 2.4l-45.2-0.2c-0.5 0-0.9-0.5-0.9-1.2 0-0.6 0.4-1.2 0.9-1.2z"/>
		<path class="s0" d="m255.7 111.6h-21.8q-0.4 0-0.8-0.1-0.4-0.2-0.7-0.5-0.3-0.3-0.5-0.7-0.1-0.4-0.1-0.8 0 0 0-0.1 0-0.1 0.1-0.1 0 0 0.1-0.1 0 0 0.1 0h23.6q0.2 0 0.4 0.1 0.3 0.1 0.4 0.3 0.2 0.1 0.3 0.4 0.1 0.2 0.1 0.4 0 0.3-0.1 0.5-0.1 0.2-0.3 0.4-0.1 0.1-0.4 0.2-0.2 0.1-0.4 0.1z"/>
		<path class="s8" d="m243.9 94.8l3.6-1.1-0.3 9c0 0-7.9 1.8-8.4-1.8l1-2c0.9-1.6 2.1-3.6 4.1-4.1z"/>
		<path fill-rule="evenodd" class="s8" d="m252.9 96.2l-1 5-4.7 1.4 0.3-8.9 5.4 2.5z"/>
		<path fill-rule="evenodd" class="s0" d="m254.4 187.8l15 5.1 3-6.2-16.6-5.3-1.4 6.4z"/>
		<path fill-rule="evenodd" class="s0" d="m297.5 177l13.8-7.8-2.6-6.4-15 8.8 3.8 5.4z"/>
		<path class="s10" d="m257.7 28.6c2.1-0.1 2.9-2.5 2.6-3.6q-0.1-0.5-0.3-0.9-0.2-0.5-0.5-0.9-0.3-0.5-0.7-0.8-0.3-0.4-0.8-0.7c0.7-2-0.2-4.4-2.7-6.1q-0.7-0.4-1.4-0.6-0.8-0.3-1.5-0.3-0.8-0.1-1.6 0-0.8 0.2-1.5 0.4c0-1.8-3.3-3-5.5-0.7q-0.6-0.4-1.4-0.6-0.7-0.2-1.5-0.1-0.8 0.1-1.5 0.4-0.7 0.3-1.3 0.8-0.2 0.2-0.3 0.4-0.2 0.2-0.3 0.5-0.1 0.3-0.1 0.5 0 0.3 0.1 0.6c-0.9 0-1.7 0.2-2.4 0.6-0.8 0.5-1.4 1.1-1.8 1.9-0.4 0.7-0.5 1.6-0.5 2.4 0 0.9 0.3 1.7 0.8 2.4 0.7 1 2.3 1 3.5 0.7q0.2 0.5 0.5 0.8 0.4 0.4 0.8 0.7 0.4 0.3 0.8 0.5 0.5 0.2 0.9 0.3c4 1.3 9.4 0.1 10.4 0q0.3 0 0.7 0 0.4 0 0.7 0 0.4 0.1 0.7 0.2 0.3 0.2 0.7 0.4-0.2 0.1-0.4 0.3-0.1 0.2-0.3 0.3-0.2 0.1-0.5 0.1-0.2 0.1-0.4 0.1-0.2 0.1-0.5 0.1-0.2 0-0.4 0-0.2-0.1-0.5-0.1-0.2 0-0.4-0.1 0.5 0.4 1 0.6 0.6 0.2 1.2 0.3 0.6 0.2 1.2 0.2 0.6 0 1.1-0.1 0.3-0.2 0.6-0.3 0.2-0.1 0.5-0.2 0.2-0.1 0.5-0.2 0.3-0.1 0.5-0.2c0.5-0.1 1.2 0.1 1.2 0z"/>
	</g>
</svg>