<svg xmlns="http://www.w3.org/2000/svg" viewBox="0 0 500 500"><g id="freepik--background-simple--inject-157"><path d="M78.78,341.73a135.25,135.25,0,0,1,17.37-106.9c5.24-8,11.53-15.63,19.81-20.44S134.82,208,143.48,212c9.85,4.64,15.15,15.18,20.92,24.41s14.36,18.62,25.24,18.2c6.48-.25,12.24-4,17.47-7.84,53.57-39.25,91.75-100.08,152.76-126.31,13.5-5.81,29.38-9.62,42.59-3.17,14.48,7.07,21.07,24.29,22.57,40.34,2.33,25-4.54,50.21-16.3,72.36s-28.26,41.45-46,59.19c-45.9,45.95-103,83.36-167,94.12-21.44,3.6-43.74,4.13-64.68-1.75s-40.43-18.67-51.58-37.35C79.53,345.84,78.78,341.73,78.78,341.73Z" style="fill:#679C97"></path><g style="opacity:0.9"><path d="M78.78,341.73a135.25,135.25,0,0,1,17.37-106.9c5.24-8,11.53-15.63,19.81-20.44S134.82,208,143.48,212c9.85,4.64,15.15,15.18,20.92,24.41s14.36,18.62,25.24,18.2c6.48-.25,12.24-4,17.47-7.84,53.57-39.25,91.75-100.08,152.76-126.31,13.5-5.81,29.38-9.62,42.59-3.17,14.48,7.07,21.07,24.29,22.57,40.34,2.33,25-4.54,50.21-16.3,72.36s-28.26,41.45-46,59.19c-45.9,45.95-103,83.36-167,94.12-21.44,3.6-43.74,4.13-64.68-1.75s-40.43-18.67-51.58-37.35C79.53,345.84,78.78,341.73,78.78,341.73Z" style="fill:#fff"></path></g></g><g id="freepik--Shadow--inject-157"><ellipse id="freepik--path--inject-157" cx="250" cy="415.69" rx="193.89" ry="11.32" style="fill:#f5f5f5"></ellipse></g><g id="freepik--chart-2--inject-157"><rect x="217.2" y="242.7" width="66.02" height="173.73" style="fill:#679C97"></rect><rect x="234.2" y="242.7" width="49.23" height="173.73" style="opacity:0.5"></rect><rect x="303.45" y="301.93" width="66.02" height="114.49" style="fill:#679C97"></rect><rect x="320.24" y="301.66" width="49.23" height="114.77" style="opacity:0.30000000000000004"></rect><rect x="130.53" y="273.68" width="66.02" height="142.74" style="fill:#679C97"></rect><rect x="147.32" y="273.33" width="49.23" height="143.09" style="opacity:0.4"></rect></g><g id="freepik--chart-1--inject-157"><path d="M132.93,159v6a18,18,0,0,1,10.25,4.25l4.27-4.27A24,24,0,0,0,132.93,159Z" style="fill:#679C97"></path><path d="M130,201.09a18.05,18.05,0,0,1-16.55-16.55h-6A24.08,24.08,0,0,0,130,207.13Z" style="fill:#679C97"></path><path d="M113.47,181.62A18.07,18.07,0,0,1,130,165.07v-6a24.09,24.09,0,0,0-22.59,22.59Z" style="fill:#679C97"></path><path d="M113.47,181.62A18.07,18.07,0,0,1,130,165.07v-6a24.09,24.09,0,0,0-22.59,22.59Z" style="opacity:0.2"></path><path d="M149.51,167.11l-4.27,4.27a18.06,18.06,0,0,1-12.31,29.71v6a24.09,24.09,0,0,0,16.58-40Z" style="fill:#679C97"></path><g style="opacity:0.8"><path d="M132.93,159v6a18,18,0,0,1,10.25,4.25l4.27-4.27A24,24,0,0,0,132.93,159Z" style="fill:#fff"></path></g><g style="opacity:0.6000000000000001"><path d="M130,201.09a18.05,18.05,0,0,1-16.55-16.55h-6A24.08,24.08,0,0,0,130,207.13Z" style="fill:#fff"></path></g><g style="opacity:0.7000000000000001"><path d="M113.47,181.62A18.07,18.07,0,0,1,130,165.07v-6a24.09,24.09,0,0,0-22.59,22.59Z" style="fill:#fff"></path></g><path d="M149.51,167.11l-4.27,4.27a18.06,18.06,0,0,1-12.31,29.71v6a24.09,24.09,0,0,0,16.58-40Z" style="fill:#fff;opacity:0.5"></path></g><g id="freepik--Arrow--inject-157"><polygon points="175.3 152.66 182.95 163.04 227.03 144.74 270 160.02 308.93 134.85 311.72 138.55 320.97 123.41 300.24 121.79 303.42 125.98 264.46 150.92 222.13 135.9 175.3 152.66" style="fill:#679C97"></polygon><g style="opacity:0.5"><polygon points="175.3 152.66 182.95 163.04 227.03 144.74 270 160.02 308.93 134.85 311.72 138.55 320.97 123.41 300.24 121.79 303.42 125.98 264.46 150.92 222.13 135.9 175.3 152.66" style="fill:#fff"></polygon></g></g><g id="freepik--Symbol--inject-157"><path d="M356,159.12a9.7,9.7,0,1,0,9.7,9.7A9.7,9.7,0,0,0,356,159.12Zm0,14.55a4.85,4.85,0,1,1,4.84-4.85A4.86,4.86,0,0,1,356,173.67Z" style="fill:#679C97"></path><path d="M380.45,187.58a9.7,9.7,0,1,0,9.69,9.7A9.7,9.7,0,0,0,380.45,187.58Zm0,14.54a4.85,4.85,0,1,1,4.84-4.84A4.85,4.85,0,0,1,380.45,202.12Z" style="fill:#679C97"></path><polygon points="359.63 206.98 353.18 206.98 375.59 159.12 382.04 159.12 359.63 206.98" style="fill:#679C97"></polygon><g style="opacity:0.5"><path d="M356,159.12a9.7,9.7,0,1,0,9.7,9.7A9.7,9.7,0,0,0,356,159.12Zm0,14.55a4.85,4.85,0,1,1,4.84-4.85A4.86,4.86,0,0,1,356,173.67Z" style="fill:#fff"></path><path d="M380.45,187.58a9.7,9.7,0,1,0,9.69,9.7A9.7,9.7,0,0,0,380.45,187.58Zm0,14.54a4.85,4.85,0,1,1,4.84-4.84A4.85,4.85,0,0,1,380.45,202.12Z" style="fill:#fff"></path><polygon points="359.63 206.98 353.18 206.98 375.59 159.12 382.04 159.12 359.63 206.98" style="fill:#fff"></polygon></g></g><g id="freepik--Character--inject-157"><g id="freepik--Character--inject-2--inject-157"><path d="M245,163.41c.26,1.24.51,2.32.8,3.45s.6,2.19.93,3.33c.65,2.19,1.4,4.37,2.23,6.58a54.29,54.29,0,0,0,6.75,12.92,24.65,24.65,0,0,0,2.76,3.11,15.64,15.64,0,0,0,3.81,2.69,17,17,0,0,0,8.63,1.67,24.11,24.11,0,0,0,7.57-1.78,32.48,32.48,0,0,0,3.32-1.58,16.85,16.85,0,0,0,1.56-1c.5-.37,1-.68,1.56-1.09L282.25,187l-1.4.37-1.47.35c-1,.22-2,.41-3,.54a20.72,20.72,0,0,1-5.45.11,8.93,8.93,0,0,1-4.06-1.46,9.28,9.28,0,0,1-1.44-1.28,18.45,18.45,0,0,1-1.46-2,35.59,35.59,0,0,1-2.65-5c-.82-1.81-1.54-3.72-2.22-5.68s-1.29-4-1.9-6l-.86-3c-.27-1-.57-2.06-.78-2.93Z" style="fill:#ff8b7b"></path><path d="M244.09,157.35c4.54-5.77,11.42-3.66,15.29,5.52A89.89,89.89,0,0,1,264.46,178l-16.14,5.67C244.08,175,239.43,163.26,244.09,157.35Z" style="fill:#679C97"></path><path d="M244.09,157.35c4.54-5.77,11.42-3.66,15.29,5.52A89.89,89.89,0,0,1,264.46,178l-16.14,5.67C244.08,175,239.43,163.26,244.09,157.35Z" style="opacity:0.1"></path><path d="M250.83,167c-1.32-.9-4.05,4.35-5.31,10.53.89,2.16,1.84,4.23,2.79,6.15l9.71-3.41C256.43,174.46,253.82,169,250.83,167Z" style="opacity:0.30000000000000004;isolation:isolate"></path><path d="M283.07,184.63l3.53-1.93,1.24,7.88s-5.9,3.56-7.59.62l.18-2A6.48,6.48,0,0,1,283.07,184.63Z" style="fill:#ff8b7b"></path><polygon points="291.03 182.31 294.12 188.65 287.81 190.59 286.57 182.7 291.03 182.31" style="fill:#ff8b7b"></polygon><path d="M244,152.19,235.76,151l-10.29.9a7.16,7.16,0,0,0-6.42,5.84A183.11,183.11,0,0,0,217,180.43c-.36,8.55.59,21.17,2,32.57l34.38-4.16c.33-30,2.6-39.29,2.88-47.24a7.13,7.13,0,0,0-5-7.06Z" style="fill:#679C97"></path><polygon points="254.42 300.95 261.74 302.98 268.29 285.79 260.99 283.77 254.42 300.95" style="fill:#ff8b7b"></polygon><path d="M265,300.7a3.82,3.82,0,0,0-2.35-1.43l-7.53-1.46a.69.69,0,0,0-.81.46L252,305.14a1.52,1.52,0,0,0,.92,1.92H253c2.78,1.1,4.66.72,9,1.56,2.67.52,8.29,2.3,12,2.15s3.75-3.87,2.17-4.15C270.57,305.75,266.28,302.39,265,300.7Z" style="fill:#263238"></path><g style="opacity:0.2"><polygon points="268.29 285.8 264.8 294.94 257.6 292.63 260.98 283.77 268.29 285.8"></polygon></g><path d="M286.54,235.11a50.56,50.56,0,0,1-1.48,8.06c-1.93,7.46-5.23,15.06-8,22.47C271.7,280.28,267,293,267,293l-10-3.46s9-42.36,15.07-46.69H234.85a15.45,15.45,0,0,1-2.08-.14c6.41-.83,16.4-4.78,25.67-8.73,8.19-3.5,15.85-7,20-8.32h0C283.52,227.83,286.93,230.84,286.54,235.11Z" style="fill:#263238"></path><path d="M286.54,235.11a50.56,50.56,0,0,1-1.48,8.06c-1.93,7.46-5.23,15.06-8,22.47C271.7,280.28,267,293,267,293l-10-3.46s9-42.36,15.07-46.69H234.85a15.45,15.45,0,0,1-2.08-.14c6.41-.83,16.4-4.78,25.67-8.73,8.19-3.5,15.85-7,20-8.32h0C283.52,227.83,286.93,230.84,286.54,235.11Z" style="opacity:0.1"></path><path d="M278.45,225.7c-4.16,1.35-11.82,4.82-20,8.32-9.27,3.95-19.26,7.9-25.67,8.73-10.8-1.44-14.86-14.31-3.57-29.15,7.33,0,14.7,7,14.7,7S266.07,220.49,278.45,225.7Z" style="opacity:0.6000000000000001"></path><polygon points="305.39 286.18 313.57 286.18 305 265.64 299.44 275.07 305.39 286.18" style="fill:#ff8b7b"></polygon><path d="M312.9,284.24l-9.61-2.19a.66.66,0,0,0-.8.43l-2.68,7.39a1.48,1.48,0,0,0,1,1.83h.05c3.37.71,5,.88,9.25,1.83,2.6.6,9.18,2.32,12.77,3.14s4.53-2.7,3.1-3.37c-6.4-3-9.88-5.8-11.74-8.22A2.3,2.3,0,0,0,312.9,284.24Z" style="fill:#263238"></path><g style="opacity:0.2"><polygon points="305 265.64 308.65 274.39 301.28 278.5 299.44 275.07 305 265.64"></polygon></g><path d="M308.76,271.28l-9,5.45s-7.51-15.77-14.69-33.56a50.56,50.56,0,0,0,1.48-8.06c.39-4.27-3-7.28-8.08-9.4h0c-4.16,1.35-11.82,4.82-20,8.32-9.27,3.95-19.26,7.9-25.67,8.73a18.11,18.11,0,0,1-2.22.16c-12.32,0-16.57-10.8-11.6-29.12,7.33,0,19.88-.79,19.88-.79s24.22-5.82,41.65-3.84a19.67,19.67,0,0,1,17,15.75C302,247.16,308.76,271.28,308.76,271.28Z" style="fill:#263238"></path><path d="M308.76,271.28l-9,5.45s-7.51-15.77-14.69-33.56a50.56,50.56,0,0,0,1.48-8.06c.39-4.27-3-7.28-8.08-9.4h0c-4.16,1.35-11.82,4.82-20,8.32-9.27,3.95-19.26,7.9-25.67,8.73a18.11,18.11,0,0,1-2.22.16c-12.32,0-16.57-10.8-11.6-29.12,7.33,0,19.88-.79,19.88-.79s24.22-5.82,41.65-3.84a19.67,19.67,0,0,1,17,15.75C302,247.16,308.76,271.28,308.76,271.28Z" style="fill:#263238"></path><path d="M244,152.19,235.76,151l-10.29.9a7.16,7.16,0,0,0-6.42,5.84A183.11,183.11,0,0,0,217,180.43c-.36,8.55.59,21.17,2,32.57l34.38-4.16c.33-30,2.6-39.29,2.88-47.24a7.13,7.13,0,0,0-5-7.06Z" style="fill:#679C97"></path><path d="M218.92,211.1l-.89,2.79c-.11.21.13.44.5.45l34.32-2.05c.28,0,.52-.13.54-.31l.37-2.8c0-.2-.22-.37-.52-.38l-33.77,2.07A.59.59,0,0,0,218.92,211.1Z" style="fill:#263238"></path><path d="M218.92,211.1l-.89,2.79c-.11.21.13.44.5.45l34.32-2.05c.28,0,.52-.13.54-.31l.37-2.8c0-.2-.22-.37-.52-.38l-33.77,2.07A.59.59,0,0,0,218.92,211.1Z" style="opacity:0.1"></path><path d="M222.4,154.94c6.85-1.2,6.51,14.37,3.39,25.76-.9,3.3-4.8,1.92-6.12,1.06C215.34,179,213.88,159.92,222.4,154.94Z" style="opacity:0.30000000000000004;isolation:isolate"></path><path d="M221.57,178c.26,6.73-1.88,10.26,1.71,12.51s24.8,9.28,25.32,8.4c-1,1.62-2,3-3,4.64q-9.17-1.38-18.35-2.55c-4.47-.56-11.68-1.71-15.18-4.55-3.18-2.56-2.61-13.8-2.07-21.9C212.81,172.88,221.57,178,221.57,178Z" style="fill:#ff8b7b"></path><path d="M219.74,152.2c7-2.07,9.71,3.57,7.57,13.26a88.38,88.38,0,0,1-4.63,15.29l-14.74-4.65C209.54,166.59,212.52,154.32,219.74,152.2Z" style="fill:#679C97"></path><path d="M230,152.15a6,6,0,0,0,1.07,4.23,18,18,0,0,0,3,3.27c1.39,1.27,3.05,2.64,4.93,2.39,1.73-.23,2.72-1.1,3.42-3.16,1.48,2.39,1.55,3.58,3.18,3.73a3.66,3.66,0,0,0,2.71-1.43,5.92,5.92,0,0,0,2.13-4c.39-3-2.06-5.82-4.92-6.89a36,36,0,0,0-9-1.78C233.85,148.23,230.49,149.06,230,152.15Z" style="fill:#679C97"></path><path d="M230,152.15a6,6,0,0,0,1.07,4.23,18,18,0,0,0,3,3.27c1.39,1.27,3.05,2.64,4.93,2.39,1.73-.23,2.72-1.1,3.42-3.16,1.48,2.39,1.55,3.58,3.18,3.73a3.66,3.66,0,0,0,2.71-1.43,5.92,5.92,0,0,0,2.13-4c.39-3-2.06-5.82-4.92-6.89a36,36,0,0,0-9-1.78C233.85,148.23,230.49,149.06,230,152.15Z" style="opacity:0.30000000000000004"></path><path d="M237.16,137.64l3.73,4.31,5.07,5.86a6.55,6.55,0,0,0-1,2.08,3.59,3.59,0,0,0,1.41,4.49c.77.36,1.17,4.41-3.93,4a10.58,10.58,0,0,1-7.69-3.51c-.93-1.25-1.18-1.92-.22-3.29C237.25,147.71,237.47,142.1,237.16,137.64Z" style="fill:#ff8b7b"></path><path d="M244.74,146.36l-3.2-4.23c0,.12-.08.26-.12.4a11.18,11.18,0,0,0-.32,1.82c-.19,2.1,1.78,4.79,3.7,5.94l.15-.42a7.91,7.91,0,0,1,1-2,.38.38,0,0,1,.09-.09Z" style="opacity:0.2;isolation:isolate"></path><path d="M237.51,129.71c-.58,6.95-1.22,11,1.76,14.94,4.51,6,13.49,3.86,16.11-2.82,2.36-6,2.85-16.37-3.53-20a9.68,9.68,0,0,0-13.15,3.79A9.56,9.56,0,0,0,237.51,129.71Z" style="fill:#ff8b7b"></path><path d="M236.49,135.86l3,1.29h0c1-.42,1.23-1.63,1.16-2.73C240.35,130.18,248,125,248,125s-8.09-2.66-10.52-3.06c-.85-.14-3.91,2.08-4.38,3a8,8,0,0,0,1,8.37A18,18,0,0,0,236.49,135.86Z" style="fill:#263238"></path><path d="M233.93,134.61a6.39,6.39,0,0,0,2,4.06c1.48,1.36,3.29-.12,3.51-2.1.18-1.76-.71-4.33-2.51-4.92S233.76,132.67,233.93,134.61Z" style="fill:#ff8b7b"></path><path d="M247.94,133.88c-.11.57.1,1.1.47,1.18s.72-.31.87-.88-.11-1.1-.48-1.18S248,133.3,247.94,133.88Z" style="fill:#263238"></path><path d="M254.35,135.29c-.11.58.1,1.11.48,1.19s.75-.32.86-.88-.11-1.1-.48-1.18S254.46,134.72,254.35,135.29Z" style="fill:#263238"></path><path d="M252.21,135.26a19.15,19.15,0,0,0,1.22,4.76,2.78,2.78,0,0,1-2.37-.23Z" style="fill:#ff5652"></path><path d="M249.44,143a4.94,4.94,0,0,1-2.89-2.65.17.17,0,0,1,.09-.22.19.19,0,0,1,.23.1,4.75,4.75,0,0,0,3.29,2.64.17.17,0,0,1,.15.19.18.18,0,0,1-.2.15h0A3.75,3.75,0,0,1,249.44,143Z" style="fill:#263238"></path><path d="M247.06,131.58a.23.23,0,0,1-.14-.09.34.34,0,0,1,0-.48,3.26,3.26,0,0,1,3-.73.34.34,0,0,1,.23.42v0a.34.34,0,0,1-.43.21,2.65,2.65,0,0,0-2.34.59A.31.31,0,0,1,247.06,131.58Z" style="fill:#263238"></path><path d="M255.08,131.59a.32.32,0,0,1,0-.17.34.34,0,0,1,.42-.24,3.29,3.29,0,0,1,2.3,2,.35.35,0,0,1-.23.43.34.34,0,0,1-.42-.23,2.62,2.62,0,0,0-1.83-1.59A.33.33,0,0,1,255.08,131.59Z" style="fill:#263238"></path></g><path d="M257.2,210.38l43.88.13a3.14,3.14,0,0,0,3.07-2.8l2-22.22a2.55,2.55,0,0,0-2.57-2.82l-43.88-.13a3.15,3.15,0,0,0-3.07,2.81l-2,22.21A2.55,2.55,0,0,0,257.2,210.38Z" style="fill:#679C97"></path><path d="M257.2,210.38l43.88.13a3.14,3.14,0,0,0,3.07-2.8l2-22.22a2.55,2.55,0,0,0-2.57-2.82l-43.88-.13a3.15,3.15,0,0,0-3.07,2.81l-2,22.21A2.55,2.55,0,0,0,257.2,210.38Z" style="opacity:0.30000000000000004"></path><path d="M258.49,210.29l43.88.13a3.14,3.14,0,0,0,3.07-2.81l2-22.21a2.54,2.54,0,0,0-2.56-2.82L261,182.45a3.16,3.16,0,0,0-3.07,2.81l-2,22.21A2.54,2.54,0,0,0,258.49,210.29Z" style="fill:#679C97"></path><path d="M258.49,210.29l43.88.13a3.14,3.14,0,0,0,3.07-2.81l2-22.21a2.54,2.54,0,0,0-2.56-2.82L261,182.45a3.16,3.16,0,0,0-3.07,2.81l-2,22.21A2.54,2.54,0,0,0,258.49,210.29Z" style="fill:#fff;opacity:0.2"></path><path d="M284.77,196.75a3.1,3.1,0,1,1-2.77-3.4A3.1,3.1,0,0,1,284.77,196.75Z" style="fill:#fff"></path><path d="M303,210.39c0,1.33-.79,2.41-1.75,2.41h0l-45.29-.18c-.49,0-.89-.54-.89-1.2s.4-1.22.89-1.22Z" style="fill:#679C97"></path><path d="M303,210.39c0,1.33-.79,2.41-1.75,2.41h0l-45.29-.18c-.49,0-.89-.54-.89-1.2s.4-1.22.89-1.22Z" style="opacity:0.30000000000000004"></path><path d="M255.68,212.63h-21.8a2.1,2.1,0,0,1-2.1-2.1h0a.32.32,0,0,1,.32-.33h23.58a1.21,1.21,0,0,1,1.21,1.22h0A1.21,1.21,0,0,1,255.68,212.63Z" style="fill:#679C97"></path><path d="M243.9,195.8l3.62-1.06-.33,8.91s-7.86,1.85-8.35-1.77l1-1.95C240.71,198.25,241.91,196.29,243.9,195.8Z" style="fill:#ff8b7b"></path><polygon points="252.94 197.21 251.87 202.21 247.19 203.64 247.52 194.74 252.94 197.21" style="fill:#ff8b7b"></polygon><polygon points="254.37 288.81 269.37 293.9 272.44 287.7 255.85 282.43 254.37 288.81" style="fill:#679C97"></polygon><polygon points="297.46 277.96 311.29 270.24 308.75 263.81 293.72 272.59 297.46 277.96" style="fill:#679C97"></polygon><path d="M257.69,129.64c2.06-.12,2.9-2.55,2.65-3.59a5.34,5.34,0,0,0-2.32-3.33c.66-2-.23-4.44-2.71-6.13a6.9,6.9,0,0,0-6-.44c0-1.81-3.33-3-5.47-.74a4.8,4.8,0,0,0-5.73.51,2,2,0,0,0-.64,1.93,4.73,4.73,0,0,0-3.88,7.35c.67,1,2.26,1,3.46.74a4.81,4.81,0,0,0,3.09,2.27c3.95,1.31,9.38.08,10.34,0a4,4,0,0,1,2.77.55,2.1,2.1,0,0,1-1.57.87,5.92,5.92,0,0,1-1.78-.09,6.23,6.23,0,0,0,4.54.93,21.15,21.15,0,0,1,2.08-.91C257,129.49,257.74,129.71,257.69,129.64Z" style="fill:#263238"></path></g></svg>